<mxfile host="app.diagrams.net" modified="2020-11-12T22:43:59.726Z" agent="5.0 (X11)" etag="hoRdtOhHLM6lObbQEL1r" version="13.9.7" type="github">
  <diagram id="cQAKwTRD7LeLaWmr2Qoq" name="Page-1">
    <mxGraphModel dx="2062" dy="1922" grid="1" gridSize="10" guides="1" tooltips="1" connect="1" arrows="1" fold="1" page="1" pageScale="1" pageWidth="850" pageHeight="1100" math="0" shadow="0">
      <root>
        <mxCell id="0" />
        <mxCell id="1" parent="0" />
        <mxCell id="VIKIHbJlsXE4xQm2d-7W-1" value="not within tags" style="rounded=1;whiteSpace=wrap;html=1;" vertex="1" parent="1">
          <mxGeometry x="40" y="40" width="120" height="40" as="geometry" />
        </mxCell>
        <mxCell id="VIKIHbJlsXE4xQm2d-7W-69" value="" style="rounded=1;whiteSpace=wrap;html=1;strokeWidth=1;fillColor=none;fontColor=#000000;" vertex="1" parent="1">
          <mxGeometry x="30" y="30" width="140" height="60" as="geometry" />
        </mxCell>
        <mxCell id="VIKIHbJlsXE4xQm2d-7W-82" value="" style="endArrow=classic;html=1;fontColor=#000000;entryX=0;entryY=0.25;entryDx=0;entryDy=0;strokeColor=#B0B0B0;exitX=0.839;exitY=0.07;exitDx=0;exitDy=0;exitPerimeter=0;" edge="1" parent="1" source="VIKIHbJlsXE4xQm2d-7W-36" target="VIKIHbJlsXE4xQm2d-7W-45">
          <mxGeometry width="50" height="50" relative="1" as="geometry">
            <mxPoint x="160" y="170" as="sourcePoint" />
            <mxPoint x="450" y="260" as="targetPoint" />
          </mxGeometry>
        </mxCell>
        <mxCell id="VIKIHbJlsXE4xQm2d-7W-83" value="" style="endArrow=classic;html=1;fontColor=#000000;exitX=0;exitY=0.75;exitDx=0;exitDy=0;entryX=0.839;entryY=0.116;entryDx=0;entryDy=0;strokeColor=#B0B0B0;entryPerimeter=0;" edge="1" parent="1" source="VIKIHbJlsXE4xQm2d-7W-45" target="VIKIHbJlsXE4xQm2d-7W-36">
          <mxGeometry width="50" height="50" relative="1" as="geometry">
            <mxPoint x="170" y="180" as="sourcePoint" />
            <mxPoint x="170" y="190" as="targetPoint" />
          </mxGeometry>
        </mxCell>
        <mxCell id="VIKIHbJlsXE4xQm2d-7W-89" value="" style="endArrow=classic;html=1;fontColor=#000000;entryX=0;entryY=0.25;entryDx=0;entryDy=0;strokeColor=#B0B0B0;" edge="1" parent="1">
          <mxGeometry width="50" height="50" relative="1" as="geometry">
            <mxPoint x="160" y="249.5" as="sourcePoint" />
            <mxPoint x="440" y="249.5" as="targetPoint" />
          </mxGeometry>
        </mxCell>
        <mxCell id="VIKIHbJlsXE4xQm2d-7W-91" value="" style="endArrow=classic;html=1;fontColor=#000000;exitX=0;exitY=0.75;exitDx=0;exitDy=0;entryX=0.839;entryY=0.3;entryDx=0;entryDy=0;strokeColor=#B0B0B0;entryPerimeter=0;" edge="1" parent="1" target="VIKIHbJlsXE4xQm2d-7W-36">
          <mxGeometry width="50" height="50" relative="1" as="geometry">
            <mxPoint x="440" y="269.5" as="sourcePoint" />
            <mxPoint x="160" y="269.5" as="targetPoint" />
          </mxGeometry>
        </mxCell>
        <mxCell id="VIKIHbJlsXE4xQm2d-7W-93" value="" style="endArrow=classic;html=1;fontColor=#000000;entryX=0;entryY=0.25;entryDx=0;entryDy=0;strokeColor=#B0B0B0;" edge="1" parent="1">
          <mxGeometry width="50" height="50" relative="1" as="geometry">
            <mxPoint x="160" y="329.5" as="sourcePoint" />
            <mxPoint x="440" y="329.5" as="targetPoint" />
          </mxGeometry>
        </mxCell>
        <mxCell id="VIKIHbJlsXE4xQm2d-7W-95" value="" style="endArrow=classic;html=1;fontColor=#000000;strokeColor=#B0B0B0;entryX=0.903;entryY=0.493;entryDx=0;entryDy=0;entryPerimeter=0;exitX=0.237;exitY=0.563;exitDx=0;exitDy=0;exitPerimeter=0;" edge="1" parent="1" source="VIKIHbJlsXE4xQm2d-7W-37" target="VIKIHbJlsXE4xQm2d-7W-36">
          <mxGeometry width="50" height="50" relative="1" as="geometry">
            <mxPoint x="410" y="349" as="sourcePoint" />
            <mxPoint x="160" y="349.5" as="targetPoint" />
          </mxGeometry>
        </mxCell>
        <mxCell id="VIKIHbJlsXE4xQm2d-7W-97" value="" style="endArrow=classic;html=1;fontColor=#000000;entryX=0;entryY=0.25;entryDx=0;entryDy=0;strokeColor=#B0B0B0;" edge="1" parent="1">
          <mxGeometry width="50" height="50" relative="1" as="geometry">
            <mxPoint x="160" y="409.5" as="sourcePoint" />
            <mxPoint x="440" y="409.5" as="targetPoint" />
          </mxGeometry>
        </mxCell>
        <mxCell id="VIKIHbJlsXE4xQm2d-7W-99" value="" style="endArrow=classic;html=1;fontColor=#000000;exitX=0;exitY=0.75;exitDx=0;exitDy=0;entryX=1;entryY=0.75;entryDx=0;entryDy=0;strokeColor=#B0B0B0;" edge="1" parent="1">
          <mxGeometry width="50" height="50" relative="1" as="geometry">
            <mxPoint x="440" y="429.5" as="sourcePoint" />
            <mxPoint x="160" y="429.5" as="targetPoint" />
          </mxGeometry>
        </mxCell>
        <mxCell id="VIKIHbJlsXE4xQm2d-7W-101" value="" style="endArrow=classic;html=1;fontColor=#000000;entryX=0;entryY=0.25;entryDx=0;entryDy=0;strokeColor=#B0B0B0;" edge="1" parent="1">
          <mxGeometry width="50" height="50" relative="1" as="geometry">
            <mxPoint x="160" y="489.5" as="sourcePoint" />
            <mxPoint x="440" y="489.5" as="targetPoint" />
          </mxGeometry>
        </mxCell>
        <mxCell id="VIKIHbJlsXE4xQm2d-7W-103" value="" style="endArrow=classic;html=1;fontColor=#000000;exitX=0;exitY=0.75;exitDx=0;exitDy=0;entryX=1;entryY=0.75;entryDx=0;entryDy=0;strokeColor=#B0B0B0;" edge="1" parent="1">
          <mxGeometry width="50" height="50" relative="1" as="geometry">
            <mxPoint x="440" y="509.5" as="sourcePoint" />
            <mxPoint x="160" y="509.5" as="targetPoint" />
          </mxGeometry>
        </mxCell>
        <mxCell id="VIKIHbJlsXE4xQm2d-7W-105" value="" style="endArrow=classic;html=1;fontColor=#000000;entryX=0;entryY=0.25;entryDx=0;entryDy=0;strokeColor=#B0B0B0;" edge="1" parent="1">
          <mxGeometry width="50" height="50" relative="1" as="geometry">
            <mxPoint x="170" y="48" as="sourcePoint" />
            <mxPoint x="440" y="49.5" as="targetPoint" />
          </mxGeometry>
        </mxCell>
        <mxCell id="VIKIHbJlsXE4xQm2d-7W-107" value="" style="endArrow=classic;html=1;fontColor=#000000;exitX=0;exitY=0.75;exitDx=0;exitDy=0;entryX=0.724;entryY=0.111;entryDx=0;entryDy=0;strokeColor=#B0B0B0;entryPerimeter=0;" edge="1" parent="1" target="VIKIHbJlsXE4xQm2d-7W-38">
          <mxGeometry width="50" height="50" relative="1" as="geometry">
            <mxPoint x="440" y="69.5" as="sourcePoint" />
            <mxPoint x="160" y="69.5" as="targetPoint" />
          </mxGeometry>
        </mxCell>
        <mxCell id="VIKIHbJlsXE4xQm2d-7W-38" value="&lt;font color=&quot;#B0B0B0&quot;&gt;character is not escaped&lt;br&gt;&lt;/font&gt;" style="rounded=1;whiteSpace=wrap;html=1;fillColor=none;strokeColor=#B0B0B0;strokeWidth=4;labelPosition=center;verticalLabelPosition=bottom;align=center;verticalAlign=top;" vertex="1" parent="1">
          <mxGeometry x="-105" width="380" height="620" as="geometry" />
        </mxCell>
        <mxCell id="VIKIHbJlsXE4xQm2d-7W-37" value="&lt;font color=&quot;#B0B0B0&quot;&gt;character is escaped&lt;br&gt;&lt;/font&gt;" style="rounded=1;whiteSpace=wrap;html=1;fillColor=none;strokeColor=#B0B0B0;strokeWidth=4;labelPosition=center;verticalLabelPosition=bottom;align=center;verticalAlign=top;" vertex="1" parent="1">
          <mxGeometry x="310" width="380" height="620" as="geometry" />
        </mxCell>
        <mxCell id="VIKIHbJlsXE4xQm2d-7W-36" value="&lt;font color=&quot;#666666&quot;&gt;Within a tag&lt;/font&gt;" style="rounded=1;whiteSpace=wrap;html=1;fillColor=none;strokeWidth=4;labelPosition=center;verticalLabelPosition=bottom;align=center;verticalAlign=top;strokeColor=#666666;" vertex="1" parent="1">
          <mxGeometry x="-70" y="140" width="310" height="430" as="geometry" />
        </mxCell>
        <mxCell id="VIKIHbJlsXE4xQm2d-7W-4" value="&quot;{&quot;" style="edgeStyle=orthogonalEdgeStyle;rounded=0;orthogonalLoop=1;jettySize=auto;html=1;entryX=0.5;entryY=0;entryDx=0;entryDy=0;" edge="1" parent="1" target="VIKIHbJlsXE4xQm2d-7W-3">
          <mxGeometry relative="1" as="geometry">
            <mxPoint x="100" y="90" as="sourcePoint" />
          </mxGeometry>
        </mxCell>
        <mxCell id="VIKIHbJlsXE4xQm2d-7W-2" value="" style="endArrow=classic;html=1;" edge="1" parent="1">
          <mxGeometry width="50" height="50" relative="1" as="geometry">
            <mxPoint x="-130" y="60" as="sourcePoint" />
            <mxPoint x="30" y="60" as="targetPoint" />
          </mxGeometry>
        </mxCell>
        <mxCell id="VIKIHbJlsXE4xQm2d-7W-9" value="char" style="edgeStyle=orthogonalEdgeStyle;rounded=0;orthogonalLoop=1;jettySize=auto;html=1;" edge="1" parent="1" source="VIKIHbJlsXE4xQm2d-7W-3">
          <mxGeometry relative="1" as="geometry">
            <mxPoint x="100" y="240" as="targetPoint" />
          </mxGeometry>
        </mxCell>
        <mxCell id="VIKIHbJlsXE4xQm2d-7W-3" value="in a yet empty section of a tag" style="rounded=1;whiteSpace=wrap;html=1;" vertex="1" parent="1">
          <mxGeometry x="40" y="160" width="120" height="40" as="geometry" />
        </mxCell>
        <mxCell id="VIKIHbJlsXE4xQm2d-7W-6" value="ws" style="edgeStyle=orthogonalEdgeStyle;rounded=0;orthogonalLoop=1;jettySize=auto;html=1;" edge="1" parent="1" source="VIKIHbJlsXE4xQm2d-7W-3" target="VIKIHbJlsXE4xQm2d-7W-3">
          <mxGeometry relative="1" as="geometry" />
        </mxCell>
        <mxCell id="VIKIHbJlsXE4xQm2d-7W-12" value="ws" style="edgeStyle=orthogonalEdgeStyle;rounded=0;orthogonalLoop=1;jettySize=auto;html=1;" edge="1" parent="1" source="VIKIHbJlsXE4xQm2d-7W-10" target="VIKIHbJlsXE4xQm2d-7W-11">
          <mxGeometry relative="1" as="geometry" />
        </mxCell>
        <mxCell id="VIKIHbJlsXE4xQm2d-7W-16" style="edgeStyle=orthogonalEdgeStyle;rounded=0;orthogonalLoop=1;jettySize=auto;html=1;entryX=1;entryY=0.5;entryDx=0;entryDy=0;" edge="1" parent="1" source="VIKIHbJlsXE4xQm2d-7W-10" target="VIKIHbJlsXE4xQm2d-7W-13">
          <mxGeometry relative="1" as="geometry">
            <Array as="points">
              <mxPoint x="180" y="260" />
              <mxPoint x="180" y="420" />
            </Array>
          </mxGeometry>
        </mxCell>
        <mxCell id="VIKIHbJlsXE4xQm2d-7W-17" value="&quot;:&quot;" style="edgeLabel;html=1;align=center;verticalAlign=middle;resizable=0;points=[];" vertex="1" connectable="0" parent="VIKIHbJlsXE4xQm2d-7W-16">
          <mxGeometry x="0.1" y="3" relative="1" as="geometry">
            <mxPoint as="offset" />
          </mxGeometry>
        </mxCell>
        <mxCell id="VIKIHbJlsXE4xQm2d-7W-21" value="char" style="edgeStyle=orthogonalEdgeStyle;rounded=0;orthogonalLoop=1;jettySize=auto;html=1;entryX=0;entryY=0.25;entryDx=0;entryDy=0;exitX=0;exitY=0.75;exitDx=0;exitDy=0;" edge="1" parent="1" source="VIKIHbJlsXE4xQm2d-7W-10" target="VIKIHbJlsXE4xQm2d-7W-10">
          <mxGeometry relative="1" as="geometry">
            <mxPoint x="30" y="250" as="targetPoint" />
            <Array as="points">
              <mxPoint x="20" y="270" />
              <mxPoint x="20" y="250" />
            </Array>
          </mxGeometry>
        </mxCell>
        <mxCell id="VIKIHbJlsXE4xQm2d-7W-10" value="section is not empty anymore" style="rounded=1;whiteSpace=wrap;html=1;" vertex="1" parent="1">
          <mxGeometry x="40" y="240" width="120" height="40" as="geometry" />
        </mxCell>
        <mxCell id="VIKIHbJlsXE4xQm2d-7W-15" value="&quot;:&quot;" style="edgeStyle=orthogonalEdgeStyle;rounded=0;orthogonalLoop=1;jettySize=auto;html=1;" edge="1" parent="1" source="VIKIHbJlsXE4xQm2d-7W-11" target="VIKIHbJlsXE4xQm2d-7W-13">
          <mxGeometry relative="1" as="geometry" />
        </mxCell>
        <mxCell id="VIKIHbJlsXE4xQm2d-7W-24" style="edgeStyle=orthogonalEdgeStyle;rounded=0;orthogonalLoop=1;jettySize=auto;html=1;entryX=1;entryY=0.5;entryDx=0;entryDy=0;" edge="1" parent="1" source="VIKIHbJlsXE4xQm2d-7W-11" target="VIKIHbJlsXE4xQm2d-7W-23">
          <mxGeometry relative="1" as="geometry">
            <Array as="points">
              <mxPoint x="200" y="340" />
              <mxPoint x="200" y="500" />
            </Array>
          </mxGeometry>
        </mxCell>
        <mxCell id="VIKIHbJlsXE4xQm2d-7W-25" value="char" style="edgeLabel;html=1;align=center;verticalAlign=middle;resizable=0;points=[];" vertex="1" connectable="0" parent="VIKIHbJlsXE4xQm2d-7W-24">
          <mxGeometry x="-0.025" y="2" relative="1" as="geometry">
            <mxPoint as="offset" />
          </mxGeometry>
        </mxCell>
        <mxCell id="VIKIHbJlsXE4xQm2d-7W-11" value="section has one finished word" style="rounded=1;whiteSpace=wrap;html=1;" vertex="1" parent="1">
          <mxGeometry x="40" y="320" width="120" height="40" as="geometry" />
        </mxCell>
        <mxCell id="VIKIHbJlsXE4xQm2d-7W-26" value="char" style="edgeStyle=orthogonalEdgeStyle;rounded=0;orthogonalLoop=1;jettySize=auto;html=1;entryX=0.5;entryY=0;entryDx=0;entryDy=0;" edge="1" parent="1" source="VIKIHbJlsXE4xQm2d-7W-13" target="VIKIHbJlsXE4xQm2d-7W-23">
          <mxGeometry relative="1" as="geometry" />
        </mxCell>
        <mxCell id="VIKIHbJlsXE4xQm2d-7W-13" value="start of yet empty &quot;value&quot;-part of section " style="rounded=1;whiteSpace=wrap;html=1;" vertex="1" parent="1">
          <mxGeometry x="40" y="400" width="120" height="40" as="geometry" />
        </mxCell>
        <mxCell id="VIKIHbJlsXE4xQm2d-7W-22" value="ws" style="edgeStyle=orthogonalEdgeStyle;rounded=0;orthogonalLoop=1;jettySize=auto;html=1;entryX=0;entryY=0.25;entryDx=0;entryDy=0;exitX=0;exitY=0.75;exitDx=0;exitDy=0;" edge="1" parent="1">
          <mxGeometry relative="1" as="geometry">
            <mxPoint x="40" y="330" as="targetPoint" />
            <mxPoint x="40" y="350" as="sourcePoint" />
            <Array as="points">
              <mxPoint x="20" y="350" />
              <mxPoint x="20" y="330" />
            </Array>
          </mxGeometry>
        </mxCell>
        <mxCell id="VIKIHbJlsXE4xQm2d-7W-29" style="edgeStyle=orthogonalEdgeStyle;rounded=0;orthogonalLoop=1;jettySize=auto;html=1;entryX=0;entryY=0.5;entryDx=0;entryDy=0;" edge="1" parent="1" source="VIKIHbJlsXE4xQm2d-7W-23" target="VIKIHbJlsXE4xQm2d-7W-3">
          <mxGeometry relative="1" as="geometry">
            <mxPoint x="100" y="570" as="targetPoint" />
            <Array as="points">
              <mxPoint x="100" y="530" />
              <mxPoint x="-20" y="530" />
              <mxPoint x="-20" y="180" />
            </Array>
          </mxGeometry>
        </mxCell>
        <mxCell id="VIKIHbJlsXE4xQm2d-7W-30" value="&quot;*&quot;" style="edgeLabel;html=1;align=center;verticalAlign=middle;resizable=0;points=[];" vertex="1" connectable="0" parent="VIKIHbJlsXE4xQm2d-7W-29">
          <mxGeometry x="0.3963" y="-4" relative="1" as="geometry">
            <mxPoint as="offset" />
          </mxGeometry>
        </mxCell>
        <mxCell id="VIKIHbJlsXE4xQm2d-7W-71" style="edgeStyle=orthogonalEdgeStyle;rounded=0;orthogonalLoop=1;jettySize=auto;html=1;strokeColor=#000000;fontColor=#000000;exitX=0.5;exitY=1;exitDx=0;exitDy=0;" edge="1" parent="1" source="VIKIHbJlsXE4xQm2d-7W-23">
          <mxGeometry relative="1" as="geometry">
            <mxPoint x="30" y="60" as="targetPoint" />
            <Array as="points">
              <mxPoint x="100" y="550" />
              <mxPoint x="-40" y="550" />
              <mxPoint x="-40" y="60" />
            </Array>
          </mxGeometry>
        </mxCell>
        <mxCell id="VIKIHbJlsXE4xQm2d-7W-72" value="&quot;}&quot;" style="edgeLabel;html=1;align=center;verticalAlign=middle;resizable=0;points=[];fontColor=#000000;" vertex="1" connectable="0" parent="VIKIHbJlsXE4xQm2d-7W-71">
          <mxGeometry x="0.1945" relative="1" as="geometry">
            <mxPoint as="offset" />
          </mxGeometry>
        </mxCell>
        <mxCell id="VIKIHbJlsXE4xQm2d-7W-23" value="in not empty &quot;value&quot;-part of section" style="rounded=1;whiteSpace=wrap;html=1;" vertex="1" parent="1">
          <mxGeometry x="40" y="480" width="120" height="40" as="geometry" />
        </mxCell>
        <mxCell id="VIKIHbJlsXE4xQm2d-7W-27" value="char or ws" style="edgeStyle=orthogonalEdgeStyle;rounded=0;orthogonalLoop=1;jettySize=auto;html=1;entryX=0;entryY=0.25;entryDx=0;entryDy=0;exitX=0;exitY=0.75;exitDx=0;exitDy=0;" edge="1" parent="1">
          <mxGeometry relative="1" as="geometry">
            <mxPoint x="40" y="490" as="targetPoint" />
            <mxPoint x="40" y="510" as="sourcePoint" />
            <Array as="points">
              <mxPoint x="20" y="510" />
              <mxPoint x="20" y="490" />
            </Array>
          </mxGeometry>
        </mxCell>
        <mxCell id="VIKIHbJlsXE4xQm2d-7W-32" value="" style="endArrow=none;html=1;entryX=0.192;entryY=1;entryDx=0;entryDy=0;entryPerimeter=0;" edge="1" parent="1" target="VIKIHbJlsXE4xQm2d-7W-10">
          <mxGeometry width="50" height="50" relative="1" as="geometry">
            <mxPoint x="60" y="300" as="sourcePoint" />
            <mxPoint x="450" y="400" as="targetPoint" />
          </mxGeometry>
        </mxCell>
        <mxCell id="VIKIHbJlsXE4xQm2d-7W-33" value="" style="endArrow=none;html=1;" edge="1" parent="1">
          <mxGeometry width="50" height="50" relative="1" as="geometry">
            <mxPoint x="-20" y="300" as="sourcePoint" />
            <mxPoint x="60" y="300" as="targetPoint" />
          </mxGeometry>
        </mxCell>
        <mxCell id="VIKIHbJlsXE4xQm2d-7W-34" value="" style="endArrow=none;html=1;entryX=0.192;entryY=1;entryDx=0;entryDy=0;entryPerimeter=0;" edge="1" parent="1">
          <mxGeometry width="50" height="50" relative="1" as="geometry">
            <mxPoint x="60" y="380" as="sourcePoint" />
            <mxPoint x="63.039999999999964" y="360" as="targetPoint" />
          </mxGeometry>
        </mxCell>
        <mxCell id="VIKIHbJlsXE4xQm2d-7W-35" value="" style="endArrow=none;html=1;" edge="1" parent="1">
          <mxGeometry width="50" height="50" relative="1" as="geometry">
            <mxPoint x="-20" y="380" as="sourcePoint" />
            <mxPoint x="60" y="380" as="targetPoint" />
          </mxGeometry>
        </mxCell>
        <mxCell id="VIKIHbJlsXE4xQm2d-7W-41" value="&quot;{&quot;" style="edgeStyle=orthogonalEdgeStyle;rounded=0;orthogonalLoop=1;jettySize=auto;html=1;entryX=0.5;entryY=0;entryDx=0;entryDy=0;fontColor=#B0B0B0;strokeColor=#B0B0B0;" edge="1" parent="1" source="VIKIHbJlsXE4xQm2d-7W-42" target="VIKIHbJlsXE4xQm2d-7W-45">
          <mxGeometry relative="1" as="geometry" />
        </mxCell>
        <mxCell id="VIKIHbJlsXE4xQm2d-7W-42" value="not within tags" style="rounded=1;whiteSpace=wrap;html=1;fontColor=#B0B0B0;strokeColor=#B0B0B0;" vertex="1" parent="1">
          <mxGeometry x="440" y="40" width="120" height="40" as="geometry" />
        </mxCell>
        <mxCell id="VIKIHbJlsXE4xQm2d-7W-44" value="char" style="edgeStyle=orthogonalEdgeStyle;rounded=0;orthogonalLoop=1;jettySize=auto;html=1;fontColor=#B0B0B0;strokeColor=#B0B0B0;" edge="1" parent="1" source="VIKIHbJlsXE4xQm2d-7W-45">
          <mxGeometry relative="1" as="geometry">
            <mxPoint x="500" y="240" as="targetPoint" />
          </mxGeometry>
        </mxCell>
        <mxCell id="VIKIHbJlsXE4xQm2d-7W-45" value="in a yet empty section of a tag" style="rounded=1;whiteSpace=wrap;html=1;fontColor=#B0B0B0;strokeColor=#B0B0B0;" vertex="1" parent="1">
          <mxGeometry x="440" y="160" width="120" height="40" as="geometry" />
        </mxCell>
        <mxCell id="VIKIHbJlsXE4xQm2d-7W-46" value="ws" style="edgeStyle=orthogonalEdgeStyle;rounded=0;orthogonalLoop=1;jettySize=auto;html=1;fontColor=#B0B0B0;strokeColor=#B0B0B0;" edge="1" parent="1" source="VIKIHbJlsXE4xQm2d-7W-45" target="VIKIHbJlsXE4xQm2d-7W-45">
          <mxGeometry relative="1" as="geometry" />
        </mxCell>
        <mxCell id="VIKIHbJlsXE4xQm2d-7W-47" value="ws" style="edgeStyle=orthogonalEdgeStyle;rounded=0;orthogonalLoop=1;jettySize=auto;html=1;fontColor=#B0B0B0;strokeColor=#B0B0B0;" edge="1" parent="1" source="VIKIHbJlsXE4xQm2d-7W-51" target="VIKIHbJlsXE4xQm2d-7W-55">
          <mxGeometry relative="1" as="geometry" />
        </mxCell>
        <mxCell id="VIKIHbJlsXE4xQm2d-7W-48" style="edgeStyle=orthogonalEdgeStyle;rounded=0;orthogonalLoop=1;jettySize=auto;html=1;entryX=1;entryY=0.5;entryDx=0;entryDy=0;fontColor=#B0B0B0;strokeColor=#B0B0B0;" edge="1" parent="1" source="VIKIHbJlsXE4xQm2d-7W-51" target="VIKIHbJlsXE4xQm2d-7W-57">
          <mxGeometry relative="1" as="geometry">
            <Array as="points">
              <mxPoint x="580" y="260" />
              <mxPoint x="580" y="420" />
            </Array>
          </mxGeometry>
        </mxCell>
        <mxCell id="VIKIHbJlsXE4xQm2d-7W-49" value="&quot;:&quot;" style="edgeLabel;html=1;align=center;verticalAlign=middle;resizable=0;points=[];" vertex="1" connectable="0" parent="VIKIHbJlsXE4xQm2d-7W-48">
          <mxGeometry x="0.1" y="3" relative="1" as="geometry">
            <mxPoint as="offset" />
          </mxGeometry>
        </mxCell>
        <mxCell id="VIKIHbJlsXE4xQm2d-7W-50" value="char" style="edgeStyle=orthogonalEdgeStyle;rounded=0;orthogonalLoop=1;jettySize=auto;html=1;entryX=0;entryY=0.25;entryDx=0;entryDy=0;exitX=0;exitY=0.75;exitDx=0;exitDy=0;fontColor=#B0B0B0;strokeColor=#B0B0B0;" edge="1" parent="1" source="VIKIHbJlsXE4xQm2d-7W-51" target="VIKIHbJlsXE4xQm2d-7W-51">
          <mxGeometry relative="1" as="geometry">
            <mxPoint x="430" y="250" as="targetPoint" />
            <Array as="points">
              <mxPoint x="420" y="270" />
              <mxPoint x="420" y="250" />
            </Array>
          </mxGeometry>
        </mxCell>
        <mxCell id="VIKIHbJlsXE4xQm2d-7W-51" value="section is not empty anymore" style="rounded=1;whiteSpace=wrap;html=1;fontColor=#B0B0B0;strokeColor=#B0B0B0;" vertex="1" parent="1">
          <mxGeometry x="440" y="240" width="120" height="40" as="geometry" />
        </mxCell>
        <mxCell id="VIKIHbJlsXE4xQm2d-7W-52" value="&quot;:&quot;" style="edgeStyle=orthogonalEdgeStyle;rounded=0;orthogonalLoop=1;jettySize=auto;html=1;fontColor=#B0B0B0;strokeColor=#B0B0B0;" edge="1" parent="1" source="VIKIHbJlsXE4xQm2d-7W-55" target="VIKIHbJlsXE4xQm2d-7W-57">
          <mxGeometry relative="1" as="geometry" />
        </mxCell>
        <mxCell id="VIKIHbJlsXE4xQm2d-7W-53" style="edgeStyle=orthogonalEdgeStyle;rounded=0;orthogonalLoop=1;jettySize=auto;html=1;entryX=1;entryY=0.5;entryDx=0;entryDy=0;fontColor=#B0B0B0;strokeColor=#B0B0B0;" edge="1" parent="1" source="VIKIHbJlsXE4xQm2d-7W-55" target="VIKIHbJlsXE4xQm2d-7W-61">
          <mxGeometry relative="1" as="geometry">
            <Array as="points">
              <mxPoint x="600" y="340" />
              <mxPoint x="600" y="500" />
            </Array>
          </mxGeometry>
        </mxCell>
        <mxCell id="VIKIHbJlsXE4xQm2d-7W-54" value="char" style="edgeLabel;html=1;align=center;verticalAlign=middle;resizable=0;points=[];" vertex="1" connectable="0" parent="VIKIHbJlsXE4xQm2d-7W-53">
          <mxGeometry x="-0.025" y="2" relative="1" as="geometry">
            <mxPoint as="offset" />
          </mxGeometry>
        </mxCell>
        <mxCell id="VIKIHbJlsXE4xQm2d-7W-55" value="section has one finished word" style="rounded=1;whiteSpace=wrap;html=1;fontColor=#B0B0B0;strokeColor=#B0B0B0;" vertex="1" parent="1">
          <mxGeometry x="440" y="320" width="120" height="40" as="geometry" />
        </mxCell>
        <mxCell id="VIKIHbJlsXE4xQm2d-7W-56" value="char" style="edgeStyle=orthogonalEdgeStyle;rounded=0;orthogonalLoop=1;jettySize=auto;html=1;entryX=0.5;entryY=0;entryDx=0;entryDy=0;fontColor=#B0B0B0;strokeColor=#B0B0B0;" edge="1" parent="1" source="VIKIHbJlsXE4xQm2d-7W-57" target="VIKIHbJlsXE4xQm2d-7W-61">
          <mxGeometry relative="1" as="geometry" />
        </mxCell>
        <mxCell id="VIKIHbJlsXE4xQm2d-7W-57" value="start of yet empty &quot;value&quot;-part of section " style="rounded=1;whiteSpace=wrap;html=1;fontColor=#B0B0B0;strokeColor=#B0B0B0;" vertex="1" parent="1">
          <mxGeometry x="440" y="400" width="120" height="40" as="geometry" />
        </mxCell>
        <mxCell id="VIKIHbJlsXE4xQm2d-7W-58" value="ws" style="edgeStyle=orthogonalEdgeStyle;rounded=0;orthogonalLoop=1;jettySize=auto;html=1;entryX=0;entryY=0.25;entryDx=0;entryDy=0;exitX=0;exitY=0.75;exitDx=0;exitDy=0;fontColor=#B0B0B0;strokeColor=#B0B0B0;" edge="1" parent="1">
          <mxGeometry relative="1" as="geometry">
            <mxPoint x="440" y="330" as="targetPoint" />
            <mxPoint x="440" y="350" as="sourcePoint" />
            <Array as="points">
              <mxPoint x="420" y="350" />
              <mxPoint x="420" y="330" />
            </Array>
          </mxGeometry>
        </mxCell>
        <mxCell id="VIKIHbJlsXE4xQm2d-7W-59" style="edgeStyle=orthogonalEdgeStyle;rounded=0;orthogonalLoop=1;jettySize=auto;html=1;entryX=0;entryY=0.5;entryDx=0;entryDy=0;fontColor=#B0B0B0;strokeColor=#B0B0B0;" edge="1" parent="1" source="VIKIHbJlsXE4xQm2d-7W-61" target="VIKIHbJlsXE4xQm2d-7W-45">
          <mxGeometry relative="1" as="geometry">
            <mxPoint x="500" y="570" as="targetPoint" />
            <Array as="points">
              <mxPoint x="500" y="530" />
              <mxPoint x="380" y="530" />
              <mxPoint x="380" y="180" />
            </Array>
          </mxGeometry>
        </mxCell>
        <mxCell id="VIKIHbJlsXE4xQm2d-7W-60" value="&quot;*&quot;" style="edgeLabel;html=1;align=center;verticalAlign=middle;resizable=0;points=[];" vertex="1" connectable="0" parent="VIKIHbJlsXE4xQm2d-7W-59">
          <mxGeometry x="0.3963" y="-4" relative="1" as="geometry">
            <mxPoint as="offset" />
          </mxGeometry>
        </mxCell>
        <mxCell id="VIKIHbJlsXE4xQm2d-7W-61" value="in not empty &quot;value&quot;-part of section" style="rounded=1;whiteSpace=wrap;html=1;fontColor=#B0B0B0;strokeColor=#B0B0B0;" vertex="1" parent="1">
          <mxGeometry x="440" y="480" width="120" height="40" as="geometry" />
        </mxCell>
        <mxCell id="VIKIHbJlsXE4xQm2d-7W-62" value="char or ws" style="edgeStyle=orthogonalEdgeStyle;rounded=0;orthogonalLoop=1;jettySize=auto;html=1;entryX=0;entryY=0.25;entryDx=0;entryDy=0;exitX=0;exitY=0.75;exitDx=0;exitDy=0;fontColor=#B0B0B0;strokeColor=#B0B0B0;" edge="1" parent="1">
          <mxGeometry relative="1" as="geometry">
            <mxPoint x="440" y="490" as="targetPoint" />
            <mxPoint x="440" y="510" as="sourcePoint" />
            <Array as="points">
              <mxPoint x="420" y="510" />
              <mxPoint x="420" y="490" />
            </Array>
          </mxGeometry>
        </mxCell>
        <mxCell id="VIKIHbJlsXE4xQm2d-7W-63" value="" style="endArrow=none;html=1;entryX=0.192;entryY=1;entryDx=0;entryDy=0;entryPerimeter=0;fontColor=#B0B0B0;strokeColor=#B0B0B0;" edge="1" parent="1" target="VIKIHbJlsXE4xQm2d-7W-51">
          <mxGeometry width="50" height="50" relative="1" as="geometry">
            <mxPoint x="460" y="300" as="sourcePoint" />
            <mxPoint x="850" y="400" as="targetPoint" />
          </mxGeometry>
        </mxCell>
        <mxCell id="VIKIHbJlsXE4xQm2d-7W-64" value="" style="endArrow=none;html=1;fontColor=#B0B0B0;strokeColor=#B0B0B0;" edge="1" parent="1">
          <mxGeometry width="50" height="50" relative="1" as="geometry">
            <mxPoint x="380" y="300" as="sourcePoint" />
            <mxPoint x="460" y="300" as="targetPoint" />
          </mxGeometry>
        </mxCell>
        <mxCell id="VIKIHbJlsXE4xQm2d-7W-65" value="" style="endArrow=none;html=1;entryX=0.192;entryY=1;entryDx=0;entryDy=0;entryPerimeter=0;fontColor=#B0B0B0;strokeColor=#B0B0B0;" edge="1" parent="1">
          <mxGeometry width="50" height="50" relative="1" as="geometry">
            <mxPoint x="460" y="380" as="sourcePoint" />
            <mxPoint x="463.03999999999996" y="360" as="targetPoint" />
          </mxGeometry>
        </mxCell>
        <mxCell id="VIKIHbJlsXE4xQm2d-7W-66" value="" style="endArrow=none;html=1;fontColor=#B0B0B0;strokeColor=#B0B0B0;" edge="1" parent="1">
          <mxGeometry width="50" height="50" relative="1" as="geometry">
            <mxPoint x="380" y="380" as="sourcePoint" />
            <mxPoint x="460" y="380" as="targetPoint" />
          </mxGeometry>
        </mxCell>
        <mxCell id="VIKIHbJlsXE4xQm2d-7W-77" value="" style="endArrow=none;html=1;strokeColor=#000000;fontColor=#000000;" edge="1" parent="1">
          <mxGeometry width="50" height="50" relative="1" as="geometry">
            <mxPoint x="70" y="390" as="sourcePoint" />
            <mxPoint x="80" y="360" as="targetPoint" />
          </mxGeometry>
        </mxCell>
        <mxCell id="VIKIHbJlsXE4xQm2d-7W-78" value="" style="endArrow=none;html=1;strokeColor=#000000;fontColor=#000000;" edge="1" parent="1">
          <mxGeometry width="50" height="50" relative="1" as="geometry">
            <mxPoint x="-40" y="390.5" as="sourcePoint" />
            <mxPoint x="70" y="390" as="targetPoint" />
          </mxGeometry>
        </mxCell>
        <mxCell id="VIKIHbJlsXE4xQm2d-7W-80" value="" style="endArrow=none;html=1;strokeColor=#000000;fontColor=#000000;" edge="1" parent="1">
          <mxGeometry width="50" height="50" relative="1" as="geometry">
            <mxPoint x="70" y="310" as="sourcePoint" />
            <mxPoint x="80" y="280" as="targetPoint" />
          </mxGeometry>
        </mxCell>
        <mxCell id="VIKIHbJlsXE4xQm2d-7W-81" value="" style="endArrow=none;html=1;strokeColor=#000000;fontColor=#000000;" edge="1" parent="1">
          <mxGeometry width="50" height="50" relative="1" as="geometry">
            <mxPoint x="-40" y="310.5" as="sourcePoint" />
            <mxPoint x="70" y="310" as="targetPoint" />
          </mxGeometry>
        </mxCell>
        <mxCell id="VIKIHbJlsXE4xQm2d-7W-109" value="&quot;\&quot;" style="text;html=1;strokeColor=none;fillColor=none;align=center;verticalAlign=middle;whiteSpace=wrap;rounded=0;fontColor=#000000;" vertex="1" parent="1">
          <mxGeometry x="270" y="40" width="40" height="20" as="geometry" />
        </mxCell>
        <mxCell id="VIKIHbJlsXE4xQm2d-7W-110" value="any" style="text;html=1;strokeColor=none;fillColor=none;align=center;verticalAlign=middle;whiteSpace=wrap;rounded=0;fontColor=#000000;" vertex="1" parent="1">
          <mxGeometry x="270" y="60" width="40" height="20" as="geometry" />
        </mxCell>
        <mxCell id="VIKIHbJlsXE4xQm2d-7W-115" value="&quot;\&quot;" style="text;html=1;strokeColor=none;fillColor=none;align=center;verticalAlign=middle;whiteSpace=wrap;rounded=0;fontColor=#000000;" vertex="1" parent="1">
          <mxGeometry x="275" y="160" width="40" height="20" as="geometry" />
        </mxCell>
        <mxCell id="VIKIHbJlsXE4xQm2d-7W-116" value="any" style="text;html=1;strokeColor=none;fillColor=none;align=center;verticalAlign=middle;whiteSpace=wrap;rounded=0;fontColor=#000000;" vertex="1" parent="1">
          <mxGeometry x="275" y="180" width="40" height="20" as="geometry" />
        </mxCell>
        <mxCell id="VIKIHbJlsXE4xQm2d-7W-117" value="&quot;\&quot;" style="text;html=1;strokeColor=none;fillColor=none;align=center;verticalAlign=middle;whiteSpace=wrap;rounded=0;fontColor=#000000;" vertex="1" parent="1">
          <mxGeometry x="270" y="240" width="40" height="20" as="geometry" />
        </mxCell>
        <mxCell id="VIKIHbJlsXE4xQm2d-7W-118" value="any" style="text;html=1;strokeColor=none;fillColor=none;align=center;verticalAlign=middle;whiteSpace=wrap;rounded=0;fontColor=#000000;" vertex="1" parent="1">
          <mxGeometry x="270" y="260" width="40" height="20" as="geometry" />
        </mxCell>
        <mxCell id="VIKIHbJlsXE4xQm2d-7W-119" value="&quot;\&quot;" style="text;html=1;strokeColor=none;fillColor=none;align=center;verticalAlign=middle;whiteSpace=wrap;rounded=0;fontColor=#000000;" vertex="1" parent="1">
          <mxGeometry x="270" y="320" width="40" height="20" as="geometry" />
        </mxCell>
        <mxCell id="VIKIHbJlsXE4xQm2d-7W-120" value="any" style="text;html=1;strokeColor=none;fillColor=none;align=center;verticalAlign=middle;whiteSpace=wrap;rounded=0;fontColor=#000000;" vertex="1" parent="1">
          <mxGeometry x="270" y="340" width="40" height="20" as="geometry" />
        </mxCell>
        <mxCell id="VIKIHbJlsXE4xQm2d-7W-121" value="&quot;\&quot;" style="text;html=1;strokeColor=none;fillColor=none;align=center;verticalAlign=middle;whiteSpace=wrap;rounded=0;fontColor=#000000;" vertex="1" parent="1">
          <mxGeometry x="270" y="400" width="40" height="20" as="geometry" />
        </mxCell>
        <mxCell id="VIKIHbJlsXE4xQm2d-7W-122" value="any" style="text;html=1;strokeColor=none;fillColor=none;align=center;verticalAlign=middle;whiteSpace=wrap;rounded=0;fontColor=#000000;" vertex="1" parent="1">
          <mxGeometry x="270" y="420" width="40" height="20" as="geometry" />
        </mxCell>
        <mxCell id="VIKIHbJlsXE4xQm2d-7W-124" value="&quot;\&quot;" style="text;html=1;strokeColor=none;fillColor=none;align=center;verticalAlign=middle;whiteSpace=wrap;rounded=0;fontColor=#000000;" vertex="1" parent="1">
          <mxGeometry x="270" y="480" width="40" height="20" as="geometry" />
        </mxCell>
        <mxCell id="VIKIHbJlsXE4xQm2d-7W-125" value="any" style="text;html=1;strokeColor=none;fillColor=none;align=center;verticalAlign=middle;whiteSpace=wrap;rounded=0;fontColor=#000000;" vertex="1" parent="1">
          <mxGeometry x="270" y="500" width="40" height="20" as="geometry" />
        </mxCell>
      </root>
    </mxGraphModel>
  </diagram>
</mxfile>
